# xmcd
#
# Track frame offsets:
#	182
#	13315
#	28732
#	39505
#	48405
#	60440
#	74720
#	87052
#	96895
#	108647
#	118127
#	128350
#	139042
#	149165
#
# Disc length: 2138 seconds
#
# Revision: 0
# Processed by: cddbd v1.4PL0 Copyright (c) Steve Scherf et al.
# Submitted via: EasyCDDAExtractor 4.6.9.1
#
DISCID=cd08580e
DTITLE=Various Artist - Piano Bastringue
DYEAR=1900
DGENRE=
TTITLE0=Fascination - Marchietti
TTITLE1=To crown all - E. Cole
TTITLE2=Montevideo - J. Moranez
TTITLE3=Green village - DP
TTITLE4=Tamise - DP
TTITLE5=IDA! Sweet as apple cidre - Munston
TTITLE6=El descaminado - P. Alvirado
TTITLE7=Something to play - E.Cole
TTITLE8=Popsy Turvy - E. Cole
TTITLE9=Big salt lake - DP
TTITLE10=Borsalino - Claude Bolling
TTITLE11=En passant par Chicago - Perez - Pilar
TTITLE12=Prohibition rag - William david
TTITLE13=Video pop - Perez - Pilar
EXTD=
EXTT0=
EXTT1=
EXTT2=
EXTT3=
EXTT4=
EXTT5=
EXTT6=
EXTT7=
EXTT8=
EXTT9=
EXTT10=
EXTT11=
EXTT12=
EXTT13=
PLAYORDER=
